<svg width="50" height="50" viewBox="0 0 50 50" fill="none" xmlns="http://www.w3.org/2000/svg">
<g clip-path="url(#clip0_4623_8)">
<path fill-rule="evenodd" clip-rule="evenodd" d="M25 29.4208L36.0479 40.4687C36.6342 41.055 37.4293 41.3843 38.2583 41.3843C39.0874 41.3843 39.8825 41.055 40.4688 40.4687C41.055 39.8825 41.3843 39.0874 41.3843 38.2583C41.3843 37.4293 41.055 36.6341 40.4688 36.0479L29.4167 25L40.4667 13.9521C40.7568 13.6618 40.9869 13.3172 41.1439 12.938C41.3009 12.5588 41.3816 12.1524 41.3815 11.742C41.3814 11.3315 41.3005 10.9252 41.1433 10.546C40.9862 10.1669 40.7559 9.82242 40.4656 9.53228C40.1754 9.24214 39.8308 9.01201 39.4516 8.85504C39.0724 8.69807 38.6659 8.61733 38.2555 8.61743C37.8451 8.61753 37.4387 8.69846 37.0596 8.85561C36.6805 9.01276 36.336 9.24304 36.0458 9.53332L25 20.5812L13.9521 9.53332C13.664 9.23472 13.3192 8.99649 12.9381 8.83253C12.5569 8.66858 12.1469 8.58218 11.7319 8.57838C11.317 8.57458 10.9055 8.65345 10.5213 8.8104C10.1372 8.96735 9.78819 9.19922 9.49464 9.4925C9.20109 9.78577 8.96888 10.1346 8.81158 10.5185C8.65427 10.9025 8.575 11.314 8.57841 11.7289C8.58182 12.1439 8.66783 12.554 8.83143 12.9353C8.99503 13.3166 9.23293 13.6616 9.53126 13.95L20.5833 25L9.53334 36.05C9.23501 36.3384 8.99711 36.6833 8.83351 37.0647C8.66992 37.446 8.58391 37.8561 8.5805 38.271C8.57709 38.686 8.65635 39.0974 8.81366 39.4814C8.97097 39.8654 9.20317 40.2142 9.49672 40.5075C9.79028 40.8007 10.1393 41.0326 10.5234 41.1896C10.9075 41.3465 11.3191 41.4254 11.734 41.4216C12.1489 41.4178 12.559 41.3314 12.9401 41.1674C13.3213 41.0035 13.666 40.7653 13.9542 40.4667L25 29.4208Z" fill="#D99BFF"/>
</g>
<defs>
<clipPath id="clip0_4623_8">
<path d="M0 0H40C45.5228 0 50 4.47715 50 10V50H0V0Z" fill="white"/>
</clipPath>
</defs>
</svg>
