<svg width="200" height="200" viewBox="0 0 200 200" fill="none" xmlns="http://www.w3.org/2000/svg">
<rect width="200" height="200" fill="black"/>
<path d="M118.75 104.167V114.583C118.75 115.688 118.311 116.748 117.53 117.53C116.748 118.311 115.688 118.75 114.583 118.75H85.4167C84.3116 118.75 83.2518 118.311 82.4704 117.53C81.689 116.748 81.25 115.688 81.25 114.583V85.4167C81.25 84.3116 81.689 83.2518 82.4704 82.4704C83.2518 81.689 84.3116 81.25 85.4167 81.25H95.8333V85.4167H85.4167V114.583H114.583V104.167H118.75Z" fill="#CCCCCC"/>
<path d="M118.75 89.5833H110.417V81.25H106.25V89.5833H97.9165V93.75H106.25V102.083H110.417V93.75H118.75V89.5833Z" fill="#CCCCCC"/>
</svg>
