<svg width="100" height="100" viewBox="0 0 100 100" fill="none" xmlns="http://www.w3.org/2000/svg">
<circle cx="50" cy="50" r="50" fill="black"/>
<path d="M62.5003 52.0791H52.0837V62.4958C52.0837 63.0483 51.8642 63.5782 51.4735 63.9689C51.0828 64.3596 50.5529 64.5791 50.0003 64.5791C49.4478 64.5791 48.9179 64.3596 48.5272 63.9689C48.1365 63.5782 47.917 63.0483 47.917 62.4958V52.0791H37.5003C36.9478 52.0791 36.4179 51.8596 36.0272 51.4689C35.6365 51.0782 35.417 50.5483 35.417 49.9958C35.417 49.4433 35.6365 48.9134 36.0272 48.5227C36.4179 48.132 36.9478 47.9125 37.5003 47.9125H47.917V37.4958C47.917 36.9433 48.1365 36.4134 48.5272 36.0227C48.9179 35.632 49.4478 35.4125 50.0003 35.4125C50.5529 35.4125 51.0828 35.632 51.4735 36.0227C51.8642 36.4134 52.0837 36.9433 52.0837 37.4958V47.9125H62.5003C63.0529 47.9125 63.5828 48.132 63.9735 48.5227C64.3642 48.9134 64.5837 49.4433 64.5837 49.9958C64.5837 50.5483 64.3642 51.0782 63.9735 51.4689C63.5828 51.8596 63.0529 52.0791 62.5003 52.0791Z" fill="#CCCCCC"/>
</svg>
