<svg width="50" height="50" viewBox="0 0 50 50" fill="none" xmlns="http://www.w3.org/2000/svg">
<path d="M17.1875 37.5C13.5764 37.5 10.5035 36.2326 7.96877 33.6979C5.43405 31.1632 4.16669 28.0903 4.16669 24.4791C4.16669 20.868 5.43405 17.7951 7.96877 15.2604C10.5035 12.7257 13.5764 11.4583 17.1875 11.4583H36.4584C39.0625 11.4583 41.2764 12.3701 43.1 14.1937C44.9236 16.0173 45.8347 18.2305 45.8334 20.8333C45.832 23.4361 44.9209 25.65 43.1 27.475C41.2792 29.3 39.0653 30.2111 36.4584 30.2083H18.2292C16.632 30.2083 15.2778 29.6528 14.1667 28.5416C13.0556 27.4305 12.5 26.0764 12.5 24.4791C12.5 22.8819 13.0556 21.5278 14.1667 20.4166C15.2778 19.3055 16.632 18.75 18.2292 18.75H37.5V22.9166H18.2292C17.7778 22.9166 17.4049 23.0646 17.1104 23.3604C16.816 23.6562 16.6681 24.0291 16.6667 24.4791C16.6653 24.9291 16.8132 25.3028 17.1104 25.6C17.4077 25.8972 17.7806 26.0444 18.2292 26.0416H36.4584C37.9167 26.0069 39.1493 25.4951 40.1563 24.5062C41.1632 23.5173 41.6667 22.293 41.6667 20.8333C41.6667 19.3736 41.1632 18.141 40.1563 17.1354C39.1493 16.1298 37.9167 15.6264 36.4584 15.625H17.1875C14.7222 15.5903 12.6306 16.441 10.9125 18.1771C9.19446 19.9132 8.33474 22.0139 8.33335 24.4791C8.33335 26.9097 9.19308 28.9757 10.9125 30.6771C12.632 32.3785 14.7236 33.2639 17.1875 33.3333H37.5V37.5H17.1875Z" fill="#D99BFF"/>
</svg>
