<svg width="100" height="100" viewBox="0 0 100 100" fill="none" xmlns="http://www.w3.org/2000/svg">
<circle cx="50" cy="50" r="50" fill="black"/>
<path d="M62.5 70.8333C60.7639 70.8333 59.2882 70.2257 58.0729 69.0104C56.8576 67.7951 56.25 66.3194 56.25 64.5833C56.25 64.3402 56.2674 64.0882 56.3021 63.827C56.3368 63.5659 56.3889 63.3319 56.4583 63.125L41.7708 54.5833C41.1806 55.1041 40.5208 55.5125 39.7917 55.8083C39.0625 56.1041 38.2986 56.2513 37.5 56.25C35.7639 56.25 34.2882 55.6423 33.0729 54.427C31.8576 53.2118 31.25 51.7361 31.25 50C31.25 48.2638 31.8576 46.7882 33.0729 45.5729C34.2882 44.3576 35.7639 43.75 37.5 43.75C38.2986 43.75 39.0625 43.8979 39.7917 44.1937C40.5208 44.4895 41.1806 44.8972 41.7708 45.4166L56.4583 36.875C56.3889 36.6666 56.3368 36.4326 56.3021 36.1729C56.2674 35.9132 56.25 35.6611 56.25 35.4166C56.25 33.6805 56.8576 32.2048 58.0729 30.9895C59.2882 29.7743 60.7639 29.1666 62.5 29.1666C64.2361 29.1666 65.7118 29.7743 66.9271 30.9895C68.1424 32.2048 68.75 33.6805 68.75 35.4166C68.75 37.1527 68.1424 38.6284 66.9271 39.8437C65.7118 41.059 64.2361 41.6666 62.5 41.6666C61.7014 41.6666 60.9375 41.5194 60.2083 41.225C59.4792 40.9305 58.8194 40.5222 58.2292 40L43.5417 48.5416C43.6111 48.75 43.6632 48.9847 43.6979 49.2458C43.7326 49.5069 43.75 49.7583 43.75 50C43.75 50.2416 43.7326 50.4937 43.6979 50.7562C43.6632 51.0187 43.6111 51.2527 43.5417 51.4583L58.2292 60C58.8194 59.4791 59.4792 59.0715 60.2083 58.777C60.9375 58.4826 61.7014 58.3347 62.5 58.3333C64.2361 58.3333 65.7118 58.9409 66.9271 60.1562C68.1424 61.3715 68.75 62.8472 68.75 64.5833C68.75 66.3194 68.1424 67.7951 66.9271 69.0104C65.7118 70.2257 64.2361 70.8333 62.5 70.8333Z" fill="#CCCCCC"/>
</svg>
