<svg width="26" height="26" viewBox="0 0 26 26" fill="none" xmlns="http://www.w3.org/2000/svg">
<path d="M13.3674 8.16178C12.8148 8.16178 12.2849 7.94229 11.8942 7.55159C11.5035 7.16089 11.284 6.63098 11.284 6.07845C11.284 5.52592 11.5035 4.99601 11.8942 4.60531C12.2849 4.21461 12.8148 3.99512 13.3674 3.99512C13.9199 3.99512 14.4498 4.21461 14.8405 4.60531C15.2312 4.99601 15.4507 5.52592 15.4507 6.07845C15.4507 6.63098 15.2312 7.16089 14.8405 7.55159C14.4498 7.94229 13.9199 8.16178 13.3674 8.16178ZM13.3674 15.4535C12.8148 15.4535 12.2849 15.234 11.8942 14.8433C11.5035 14.4526 11.284 13.9227 11.284 13.3701C11.284 12.8176 11.5035 12.2877 11.8942 11.897C12.2849 11.5063 12.8148 11.2868 13.3674 11.2868C13.9199 11.2868 14.4498 11.5063 14.8405 11.897C15.2312 12.2877 15.4507 12.8176 15.4507 13.3701C15.4507 13.9227 15.2312 14.4526 14.8405 14.8433C14.4498 15.234 13.9199 15.4535 13.3674 15.4535ZM13.3674 22.7451C12.8148 22.7451 12.2849 22.5256 11.8942 22.1349C11.5035 21.7442 11.284 21.2143 11.284 20.6618C11.284 20.1092 11.5035 19.5793 11.8942 19.1886C12.2849 18.7979 12.8148 18.5784 13.3674 18.5784C13.9199 18.5784 14.4498 18.7979 14.8405 19.1886C15.2312 19.5793 15.4507 20.1092 15.4507 20.6618C15.4507 21.2143 15.2312 21.7442 14.8405 22.1349C14.4498 22.5256 13.9199 22.7451 13.3674 22.7451Z" fill="#CCCCCC"/>
</svg>
