<svg width="40" height="40" viewBox="0 0 40 40" fill="none" xmlns="http://www.w3.org/2000/svg">
<g clip-path="url(#clip0_5403_156)">
<path d="M28.3335 5C29.6088 4.99993 30.836 5.48721 31.7639 6.36214C32.6918 7.23707 33.2503 8.43351 33.3252 9.70667L33.3335 10V17.25L34.3235 16.81C35.3468 16.355 36.5268 17.06 36.6568 18.14L36.6668 18.3333V31.6667C36.6671 32.5076 36.3495 33.3176 35.7777 33.9342C35.2058 34.5509 34.4221 34.9286 33.5835 34.9917L33.3335 35H6.66683C5.82587 35.0003 5.01588 34.6827 4.39925 34.1108C3.78261 33.539 3.4049 32.7553 3.34183 31.9167L3.3335 31.6667V18.3333C3.3335 17.2133 4.4585 16.4217 5.49516 16.7417L5.6785 16.81L6.66683 17.25V10C6.66676 8.72465 7.15404 7.49748 8.02897 6.56957C8.9039 5.64166 10.1003 5.08315 11.3735 5.00833L11.6668 5H28.3335ZM28.3335 8.33333H11.6668C11.2248 8.33333 10.8009 8.50893 10.4883 8.82149C10.1758 9.13405 10.0002 9.55797 10.0002 10V18.7317L20.0002 23.1767L30.0002 18.7317V10C30.0002 9.55797 29.8246 9.13405 29.512 8.82149C29.1994 8.50893 28.7755 8.33333 28.3335 8.33333ZM20.0002 13.3333C20.425 13.3338 20.8335 13.4965 21.1424 13.7881C21.4513 14.0797 21.6372 14.4783 21.6621 14.9023C21.687 15.3264 21.549 15.744 21.2764 16.0697C21.0037 16.3955 20.617 16.6048 20.1952 16.655L20.0002 16.6667H16.6668C16.242 16.6662 15.8334 16.5035 15.5245 16.2119C15.2157 15.9203 15.0298 15.5217 15.0049 15.0977C14.98 14.6736 15.118 14.256 15.3906 13.9303C15.6633 13.6045 16.05 13.3952 16.4718 13.345L16.6668 13.3333H20.0002Z" fill="#CCCCCC"/>
</g>
<defs>
<clipPath id="clip0_5403_156">
<rect width="40" height="40" fill="white"/>
</clipPath>
</defs>
</svg>
