<svg width="30" height="30" viewBox="0 0 30 30" fill="none" xmlns="http://www.w3.org/2000/svg">
<path d="M3.99295 29.0625H0.937524V13.789C0.934722 12.7457 1.17601 11.7161 1.64211 10.7827C2.27495 9.38615 3.29647 8.20138 4.58462 7.3699C5.87277 6.53842 7.37308 6.09539 8.90627 6.09375H16.9077V0.9375H19.3897L28.9821 10.5299L19.3557 20.1562H16.9077V15H11.7038C10.6153 15.0026 9.55739 15.3602 8.69041 16.0183C7.82342 16.6765 7.1947 17.5994 6.89956 18.6471L3.99295 29.0625ZM8.90627 7.96875C7.73107 7.97001 6.58119 8.31036 5.59462 8.94895C4.60806 9.58755 3.82672 10.4973 3.34438 11.5689L3.32727 11.6049C2.98665 12.2825 2.81031 13.0307 2.81252 13.789V26.317L5.09358 18.1431C5.49963 16.7015 6.3647 15.4317 7.55759 14.5261C8.75049 13.6205 10.2061 13.1286 11.7038 13.125H18.7827V18.0776L26.3305 10.5299L18.7827 2.98207V7.96875H8.90627Z" fill="white" fill-opacity="0.75"/>
</svg>
