<svg width="50" height="50" viewBox="0 0 50 50" fill="none" xmlns="http://www.w3.org/2000/svg">
<circle cx="25" cy="25" r="25" fill="white"/>
<circle cx="25" cy="25" r="24.5" stroke="black" stroke-opacity="0.1"/>
<g clip-path="url(#clip0_5516_6)">
<path d="M44.6349 37.135L32.4999 25L44.6349 12.865C44.8675 12.6296 44.9979 12.3121 44.9979 11.9813C44.9979 11.6504 44.8675 11.3329 44.6349 11.0975L38.9024 5.36501C38.7865 5.24868 38.6488 5.15637 38.4972 5.09339C38.3455 5.03041 38.1829 4.99799 38.0187 4.99799C37.8545 4.99799 37.6919 5.03041 37.5402 5.09339C37.3886 5.15637 37.2508 5.24868 37.1349 5.36501L24.9999 17.5L12.8649 5.36501C12.6305 5.13067 12.3127 4.99902 11.9812 4.99902C11.6497 4.99902 11.3319 5.13067 11.0974 5.36501L5.36495 11.0975C5.24861 11.2134 5.15631 11.3511 5.09333 11.5028C5.03035 11.6544 4.99792 11.817 4.99792 11.9813C4.99792 12.1455 5.03035 12.3081 5.09333 12.4597C5.15631 12.6114 5.24861 12.7491 5.36495 12.865L17.4999 25L5.36495 37.135C5.13061 37.3694 4.99896 37.6873 4.99896 38.0188C4.99896 38.3502 5.13061 38.6681 5.36495 38.9025L11.0974 44.635C11.2133 44.7513 11.3511 44.8436 11.5027 44.9066C11.6544 44.9696 11.817 45.002 11.9812 45.002C12.1454 45.002 12.308 44.9696 12.4597 44.9066C12.6113 44.8436 12.749 44.7513 12.8649 44.635L24.9999 32.5L37.1349 44.635C37.3694 44.8693 37.6872 45.001 38.0187 45.001C38.3502 45.001 38.668 44.8693 38.9024 44.635L44.6349 38.9025C44.7513 38.7866 44.8436 38.6489 44.9066 38.4972C44.9695 38.3456 45.002 38.183 45.002 38.0188C45.002 37.8545 44.9695 37.6919 44.9066 37.5403C44.8436 37.3886 44.7513 37.2509 44.6349 37.135Z" fill="#D99BFF"/>
</g>
<defs>
<clipPath id="clip0_5516_6">
<rect width="40" height="40" fill="white" transform="translate(5 5)"/>
</clipPath>
</defs>
</svg>
